PathFileType	4	(X/Y/Z)	./resultDataOpenSim/trcMotMarkerGrf/sub09/qtm-12-01.trc
DataRate	CameraRate	NumFrames	NumMarkers	Units	OrigDataRate	OrigDataStartFrame	OrigNumFrames
250.000000	250.000000	11	24	m	250.000000	1	513
Frame#	Time	L.Toe.Tip			R.Toe.Tip			L.Ankle.Lat			R.Ankle.Lat			L.Ankle.Med			R.Ankle.Med			L.Heel			R.Heel			L.Knee.Lat			R.Knee.Lat			L.Knee.Med			R.Knee.Med			L.Thigh.Upper			R.Thigh.Upper			L.ASIS			R.ASIS			V.Sacral			L.Acromium			R.Acromium			C7			L.Elbow			R.Elbow			L.Wrist.Lat			R.Wrist.Lat
		X1	Y1	Z1	X2	Y2	Z2	X3	Y3	Z3	X4	Y4	Z4	X5	Y5	Z5	X6	Y6	Z6	X7	Y7	Z7	X8	Y8	Z8	X9	Y9	Z9	X10	Y10	Z10	X11	Y11	Z11	X12	Y12	Z12	X13	Y13	Z13	X14	Y14	Z14	X15	Y15	Z15	X16	Y16	Z16	X17	Y17	Z17	X18	Y18	Z18	X19	Y19	Z19	X20	Y20	Z20	X21	Y21	Z21	X22	Y22	Z22	X23	Y23	Z23	X24	Y24	Z24

1	0	-1.4739188	0.037028546	0.0023681979	-0.88071821	0.098051047	0.091722269	-1.624507	0.085323214	-0.025187915	-1.0327441	0.071924453	0.11688987	-1.5895771	0.0984579	0.066560972	-1.0232382	0.11746827	0.028894186	NaN	NaN	NaN	-1.0804039	0.033315776	0.057868345	-1.4766278	0.47658869	-0.096966399	-1.1246704	0.52103167	0.17324325	-1.4685008	0.47840121	0.029394098	-1.1267086	0.5047532	0.046223936	-1.3633719	0.88095909	-0.15272197	-1.3331858	0.87435221	0.21649363	-1.2566225	0.95481418	-0.10124552	-1.2445539	0.96252698	0.14245829	-1.4142504	1.0214583	0.035564417	-1.2174962	1.4104118	-0.13241882	-1.2712196	1.4267174	0.19198764	-1.305067	1.4693434	0.024067126	-1.3534975	1.0700519	-0.21641662	-1.4518587	1.1137083	0.26952803	-1.1865008	0.85966265	-0.20619048	-1.3573907	0.85903823	0.30070848
2	0.004	-1.4738306	0.037024723	0.0022306646	-0.86551604	0.10184008	0.091694894	-1.6241107	0.085989498	-0.025442275	-1.0170864	0.072268918	0.11635822	-1.5888513	0.09901495	0.066267535	-1.0082767	0.11821643	0.028413349	NaN	NaN	NaN	-1.064099	0.032169643	0.058744459	-1.4733544	0.47622315	-0.097250949	-1.1206094	0.51881883	0.17229334	-1.4652446	0.47802933	0.029138915	-1.1203802	0.50304299	0.045637348	-1.3584688	0.8799644	-0.15259419	-1.3270501	0.87230625	0.21626307	-1.2512553	0.95339271	-0.10156859	-1.2380758	0.96095082	0.1421913	-1.4097397	1.0189275	0.034275633	-1.211926	1.4090486	-0.1323974	-1.2658318	1.4251795	0.19210301	-1.300152	1.4674937	0.023278563	-1.3475495	1.0684357	-0.216533	-1.4466378	1.1123342	0.26945013	-1.1799335	0.8585139	-0.20613399	-1.3521908	0.85752315	0.300718
3	0.008	-1.4737887	0.036992362	0.0021660914	-0.85060432	0.10561591	0.091648532	-1.6236963	0.086630162	-0.025711012	-1.0012499	0.072882269	0.11602436	-1.5882117	0.09954896	0.065972916	-0.99357025	0.11900349	0.027979307	NaN	NaN	NaN	-1.0478702	0.031329361	0.059390871	-1.4698835	0.47579017	-0.09752513	-1.1158946	0.51671208	0.17148999	-1.4618609	0.47761561	0.028871229	-1.1141568	0.50131041	0.045066292	-1.3535698	0.87893661	-0.15243682	-1.3205917	0.87026322	0.21613201	-1.2462143	0.95193442	-0.10189732	-1.2315699	0.95935336	0.14190692	-1.4048002	1.016717	0.033474625	-1.2063701	1.4076763	-0.13234772	-1.2603703	1.4236286	0.19219444	-1.2950662	1.4658423	0.022873689	-1.3415807	1.0668342	-0.21662694	-1.4414355	1.1109299	0.26925576	-1.1733741	0.85735327	-0.20606213	-1.3469762	0.85598841	0.30073907
4	0.012	-1.4738678	0.036889581	0.0022998691	-0.8361529	0.10934727	0.09155122	-1.6232533	0.087250747	-0.026002129	-0.98512147	0.073962435	0.11596069	-1.5876533	0.10007978	0.065675874	-0.97925155	0.11984991	0.027600523	NaN	NaN	NaN	-1.0319165	0.030884614	0.059690909	-1.4662057	0.47528559	-0.097788944	-1.1099044	0.51481908	0.17100311	-1.4582726	0.47713214	0.028591955	-1.1080613	0.49954978	0.044519085	-1.3486653	0.87786325	-0.15225766	-1.3133626	0.86824948	0.21620831	-1.2414597	0.95045079	-0.10223376	-1.2250319	0.95772535	0.1416032	-1.399418	1.0147968	0.033175937	-1.2008268	1.4062948	-0.13225693	-1.2548253	1.4220545	0.1922742	-1.2897397	1.4643967	0.022883631	-1.3355761	1.065248	-0.21669634	-1.4361541	1.1094201	0.26886978	-1.1668264	0.85616853	-0.2059712	-1.3417444	0.85442608	0.30077728
5	0.016	-1.4741175	0.036688046	0.0027228417	-0.82223667	0.11297392	0.091344283	-1.6227797	0.087891178	-0.026311206	-0.96905426	0.075448518	0.11597717	-1.5871142	0.10064431	0.065379578	-0.96540276	0.12074419	0.027247725	NaN	NaN	NaN	-1.0164791	0.030721501	0.059695232	-1.4624693	0.47475876	-0.098057879	-1.1028371	0.51314404	0.17081997	-1.4544742	0.47659042	0.028304634	-1.1020549	0.49777963	0.043993613	-1.3437324	0.87675443	-0.15208412	-1.3050895	0.86630932	0.21653956	-1.2366474	0.94899826	-0.10257451	-1.2184846	0.95607474	0.14129251	-1.3939102	1.0129089	0.033030118	-1.1952789	1.4049161	-0.13213464	-1.2492333	1.4204559	0.19237075	-1.2842295	1.4630423	0.023101645	-1.3295372	1.0636656	-0.21673939	-1.4306967	1.1077728	0.26835498	-1.1603027	0.85495614	-0.20586566	-1.3364981	0.85284189	0.30083535
6	0.02	-1.4744491	0.03642983	0.0033018138	-0.80887635	0.11643764	0.090963903	-1.6222741	0.088603103	-0.026631832	-0.95381589	0.076978175	0.11577496	-1.5865537	0.10125043	0.065088372	-0.9521157	0.1216532	0.026875973	NaN	NaN	NaN	-1.0016792	0.030685108	0.059526421	-1.4587665	0.47424905	-0.098344543	-1.095602	0.51158607	0.17073759	-1.4505014	0.47602872	0.028001868	-1.0960729	0.49603301	0.043484343	-1.3387314	0.87562785	-0.15192202	-1.2961858	0.8644394	0.21700131	-1.2315176	0.94761806	-0.10291648	-1.2119507	0.95441433	0.14098711	-1.3885284	1.010908	0.032786078	-1.1897012	1.4035527	-0.13200381	-1.2436163	1.4188382	0.19249486	-1.2786297	1.4616899	0.023357609	-1.3234716	1.0620778	-0.21675164	-1.4251036	1.1060621	0.26788239	-1.1538095	0.85371935	-0.20575149	-1.3312326	0.85124302	0.30091509
7	0.024	-1.4746667	0.036219777	0.0037214027	-0.79610173	0.11970365	0.090406454	-1.6217322	0.089404749	-0.02697217	-0.93992765	0.078183961	0.11526713	-1.5859758	0.10188194	0.064798868	-0.93944404	0.12254962	0.026454731	NaN	NaN	NaN	-0.98753958	0.030676323	0.059254682	-1.4550272	0.47375073	-0.098639204	-1.0887711	0.51007707	0.17061462	-1.4464153	0.47546409	0.027681704	-1.0900542	0.49434612	0.042999255	-1.3336327	0.87450296	-0.15174765	-1.2875513	0.86257505	0.21736461	-1.226086	0.94631179	-0.10326543	-1.2054474	0.95275478	0.14068659	-1.3832517	1.0088969	0.032535636	-1.1840939	1.4022102	-0.13187921	-1.2379758	1.4172125	0.1926407	-1.2729999	1.4603135	0.023594828	-1.3173927	1.0604892	-0.21673643	-1.4194815	1.1043837	0.26755834	-1.1473495	0.85246379	-0.2056325	-1.3259513	0.8496332	0.30101187
8	0.028	-1.4746594	0.036133365	0.003789669	-0.78396531	0.1227468	0.089749068	-1.6211512	0.090270089	-0.027351535	-0.92730843	0.078976208	0.11457845	-1.5854043	0.10254096	0.06449779	-0.92734152	0.1234231	0.025980554	NaN	NaN	NaN	-0.97406109	0.030646501	0.058881318	-1.4511216	0.47323442	-0.098920484	-1.0822783	0.50862594	0.17044885	-1.4422889	0.47487834	0.027362798	-1.083953	0.49274958	0.042564558	-1.3284334	0.87339892	-0.15154071	-1.2796865	0.86066686	0.2175126	-1.2204868	0.9450673	-0.10363301	-1.198985	0.95110538	0.14037875	-1.3779069	1.0070227	0.032478298	-1.1784789	1.4008876	-0.13176035	-1.232302	1.4155923	0.19280065	-1.2673573	1.4589165	0.023816399	-1.3113085	1.0589127	-0.21669741	-1.4138694	1.1027638	0.26735866	-1.1409241	0.85119552	-0.20550792	-1.3206623	0.84801541	0.30111718
9	0.032	-1.4744753	0.036163521	0.0035648829	-0.77250225	0.12552242	0.089087089	-1.6205297	0.091178987	-0.027780216	-0.91558103	0.079481778	0.11383023	-1.584857	0.10325884	0.064168964	-0.91574449	0.12425528	0.025459235	NaN	NaN	NaN	-0.96126384	0.030572229	0.05837471	-1.4470054	0.47268515	-0.099180073	-1.0758991	0.50725681	0.17026351	-1.4381385	0.47425761	0.027061068	-1.0777316	0.49127071	0.042205691	-1.3231461	0.8723233	-0.1513192	-1.2724153	0.85872804	0.21749203	-1.2148108	0.94387252	-0.10402164	-1.1925678	0.94947234	0.14005323	-1.3722124	1.0052697	0.032709279	-1.1728727	1.3995812	-0.131644	-1.2265848	1.4139868	0.19297231	-1.2616983	1.4575047	0.02403452	-1.3052189	1.0573617	-0.21663312	-1.4082405	1.1011755	0.26721462	-1.1345339	0.84992172	-0.20537819	-1.3153605	0.84639469	0.30122724
10	0.036	-1.4742185	0.036256773	0.0032053427	-0.76170648	0.12796095	0.088466762	-1.6198615	0.092146321	-0.028250888	-0.90444033	0.079835754	0.11306879	-1.5843378	0.10406347	0.063802294	-0.9046756	0.12499627	0.024887646	NaN	NaN	NaN	-0.94918477	0.030440252	0.057694489	-1.4427163	0.4721129	-0.099431413	-1.0694644	0.50599218	0.1700716	-1.4338951	0.47361981	0.026770418	-1.0713471	0.48993654	0.041921931	-1.3177825	0.87126552	-0.15112601	-1.2652933	0.85680836	0.217414	-1.2090714	0.94271235	-0.10441818	-1.186185	0.94785628	0.13971258	-1.3654812	1.0035984	0.03352028	-1.1672779	1.3982876	-0.13152883	-1.2208236	1.4124006	0.19316341	-1.2560153	1.4560805	0.024254948	-1.2991241	1.0558436	-0.21654163	-1.4025591	1.0995933	0.2670874	-1.1281819	0.84865087	-0.20525118	-1.3100249	0.84477582	0.30134112
11	0.04	-1.4739595	0.036366166	0.0028304327	-0.75154959	0.12998643	0.087871309	-1.6191418	0.093189746	-0.028751116	-0.89377186	0.080078365	0.11230127	-1.5838476	0.10495883	0.063394808	-0.89422438	0.12557771	0.024256521	NaN	NaN	NaN	-0.93783955	0.030258148	0.056800673	-1.4382965	0.47154157	-0.099693948	-1.0627202	0.50487736	0.16992336	-1.4294983	0.47298999	0.026480853	-1.0647505	0.48876491	0.041682902	-1.312338	0.87021318	-0.15097831	-1.2578423	0.85496278	0.21740418	-1.2032374	0.94157376	-0.10480658	-1.1798006	0.94625873	0.13937039	-1.3568862	1.0020848	0.035398858	-1.1616852	1.3970074	-0.13140927	-1.2150179	1.410835	0.19338404	-1.2503045	1.4546499	0.024482245	-1.2930288	1.0543596	-0.21642463	-1.3968053	1.0980181	0.26697479	-1.1218718	0.84738851	-0.20513479	-1.3046415	0.84316161	0.30145726
